<svg version="1" xmlns="http://www.w3.org/2000/svg" width="1706.667" height="1706.667" viewBox="0 0 1280.000000 1280.000000"><path d="M615.8 290.5c-.2.2-3.7.6-7.8.9-4.1.4-8.8.9-10.5 1.1-6.7.9-17.1 2.5-19.5 3-1.4.3-4.1.8-6 1.1-4.8.7-29.9 7-33.3 8.3-1.5.6-2.7.8-2.7.5 0-.4-.6-.2-1.2.3-.7.5-5.8 2.5-11.3 4.3-5.5 1.8-10.4 3.6-11 4-.5.3-3.2 1.5-6 2.5-16.9 6.1-55.7 27.6-70 38.7-.5.5-4.4 3.4-8.6 6.6-20.6 15.6-40 34.1-55.9 53.2-1.9 2.3-4.1 4.8-4.7 5.5-.7.8-1.3 1.6-1.3 1.9 0 .3-1.2 1.8-2.6 3.3-4.9 5.3-27.4 39.1-27.4 41.2 0 .5-.7 1.4-1.5 2.1-.8.7-1.3 1.6-1 2 .3.5.2 1-.2 1.2-.5.1-2.4 3.4-4.3 7.3-1.9 3.8-3.8 7.2-4.2 7.5-.4.3-.9 1.5-1.1 2.5-.2 1.1-1.7 4.9-3.4 8.5-4.6 9.8-8.3 19-8.3 20.6 0 .8-.5 1.4-1.2 1.4-.6 0-.9.3-.5.6.3.3-.5 3.6-1.8 7.3-1.2 3.6-3.3 10-4.5 14.1-1.2 4.1-2.5 8.7-3 10.2-.5 1.4-.6 2.9-.3 3.2.3.3.1 1.1-.4 1.8-.6.7-1.3 2.9-1.7 4.8-.3 1.9-.8 4.6-1.1 6-.3 1.4-.8 3.6-1 5-.5 3.2-1.4 7.7-2.1 11.4-.3 1.5-.8 4.5-1 6.5-.2 2-.6 4.9-.8 6.6-1.4 9.2-2 22.4-2 42 0 17.9.8 39 1.4 39 .2 0 .7 3.3 1.5 10 .8 7.2 1.1 8.9 2 13.5.4 1.9.9 4.4 1 5.5.2 1.1.4 2.2.5 2.5.1.3.3.9.4 1.5.6 3.9 2.3 11.4 2.6 11.7.1.2.3 1 .5 1.8.1.8.8 3.5 1.5 6s1.3 4.9 1.5 5.5c.1.5.4 1.7.8 2.5.3.8 2 6 3.7 11.5 5.1 15.6 9.4 26.1 18.7 45.4 5.3 11 12.4 23.5 13.5 23.9.4.2.8.9.8 1.5 0 .5 3.5 6.2 7.8 12.5 4.2 6.3 8.4 12.5 9.3 13.8.9 1.3 2.7 3.6 4 5.2 1.4 1.5 3.1 3.7 4 4.9 3.8 5.4 17.2 20.4 27 30.2s26.5 24.6 29.8 26.5c.9.5 2.2 1.6 2.9 2.3.8.7 4.4 3.4 8 6 3.7 2.6 6.9 5 7.2 5.3.3.3 2.3 1.7 4.5 3s4.2 2.6 4.5 2.9c.7.8 4.1 2.9 7 4.3 1.4.7 2.7 1.5 3 1.8 1.2 1.4 16 9.4 27.8 15 7 3.4 13.8 6.7 15.2 7.5 1.4.7 3 1.4 3.5 1.5.6.1 2 .6 3.3 1.1 1.3.5 2.6.9 2.9.9.3 0 1.9.6 3.6 1.4 3.1 1.4 6.7 2.8 7.7 3.1.3 0 3.2.9 6.5 2 7.3 2.2 6.5 2 15 4.5 3.9 1.1 7.9 2.2 9 2.5 4.5.9 6.2 1.3 10 2.3 2.2.6 5.6 1.3 7.5 1.6 1.9.3 4.6.8 6 1.1 1.4.3 3.9.7 5.5.9 1.7.2 4.1.6 5.5.9 11.7 2.7 46.4 4.3 70 3.2 9.7-.4 13.2-.7 23-2 1.9-.3 5.2-.7 7.2-.9 2.1-.3 5.3-.8 7-1.1 1.8-.3 4.4-.7 5.8-.9 1.4-.2 6.1-1.2 10.5-2.2 4.4-.9 8.7-1.8 9.5-1.9.8-.1 2.2-.5 3-.7 1.8-.7 9.6-2.8 12.4-3.4 2.6-.6 3.7-.9 5.6-1.7.8-.3 4-1.3 7-2.3 3-.9 6.9-2.3 8.7-3.1 1.7-.7 3.7-1.3 4.5-1.3.8 0 1.8-.3 2.2-.7.4-.5 1.1-.8 1.4-.9.9-.1 8.4-3.2 17-7.1 2-.9 3.9-1.7 4.2-1.8.9-.3 13.5-6.6 17.5-8.9 2.2-1.2 6.7-3.7 9.9-5.4 10.2-5.7 32.3-20.8 44-30.2 12.2-9.8 37.9-34.4 44-42.1 1.1-1.3 3.3-4 5-6 6.3-7.2 7.6-8.9 7.6-9.9 0-.6.4-1 .8-1 1.4 0 23.2-31.6 23.2-33.6 0-.7.4-1.4.8-1.6 1.4-.5 16.2-27.9 16.2-29.9 0-.7.6-2 1.3-2.8 1.6-2 13.7-32.4 13.7-34.5 0-.9.4-1.6.8-1.6s.8-.8.9-1.8c0-.9 1.3-5.8 2.7-10.7 3-10.2 2.8-9.1 5.4-21 4.1-18.3 6.3-32.8 7.7-52.5 1-13.2.5-42.2-1-57-.7-6.9-2.7-22.3-3.1-24.3-.2-.9-.6-2.5-.8-3.6-.2-1-.7-3.6-1-5.7-.4-2.2-.8-4.6-1.1-5.4-.2-.8-.6-2.6-.9-4-.3-1.4-.8-3.6-1.1-5-.3-1.4-.8-3.6-1.1-5-.2-1.4-.7-3.2-1.1-4-.3-.8-.8-2.4-1-3.4-.2-1.1-1-3.9-1.8-6.3s-1.5-4.8-1.5-5.4c0-.6-.6-2.5-1.4-4.2-.7-1.8-1.9-5.2-2.7-7.7-.7-2.5-1.6-5-1.9-5.5-.4-.6-1.5-3.3-2.5-6-5.3-14.6-23.2-50.3-25.7-51.3-.4-.2-.8-.8-.8-1.4 0-.6-1.7-3.6-3.7-6.7-3.9-5.8-4.2-6.2-8.1-12.4-1.3-2-2.8-3.7-3.2-3.7-.5 0-1.2-.9-1.5-2.1-.6-1.9-2.2-4-6-8.3-.5-.6-2.2-2.7-3.6-4.6-1.5-1.9-3.7-4.6-4.9-6-1.2-1.4-4.1-4.6-6.3-7.3-8-9.3-25.1-26-35.6-34.7-2.9-2.5-5.9-5-6.5-5.5-.6-.6-4.9-3.9-9.6-7.3-4.7-3.5-9.3-6.9-10.3-7.7-.9-.8-2-1.5-2.3-1.5-.5 0-6.4-4-7.4-5-.3-.3-1.6-1.1-3-1.9-1.4-.8-5.4-3.3-9-5.5-10.8-6.6-35.9-18.8-48.5-23.7-3.3-1.3-6.4-2.6-7-2.9-.5-.4-3-1.2-5.5-1.9-2.5-.8-5.9-2-7.7-2.7-1.7-.8-3.6-1.4-4.2-1.4-.6 0-3-.7-5.4-1.5-2.4-.8-5.2-1.6-6.3-1.8-1-.2-2.6-.7-3.4-1-.8-.4-2.6-.9-4-1.1-1.4-.3-3.6-.8-5-1.1-1.4-.3-3.6-.8-5-1.1-1.4-.3-3.2-.7-4-.9-.8-.3-3.2-.7-5.4-1.1-2.1-.3-4.8-.8-6-1-3.6-.8-20.8-3.3-27.1-3.9-6.1-.7-57.1-1.6-57.7-1z"/></svg>